<svg xmlns="http://www.w3.org/2000/svg" viewBox="115 115 270 270">
  <defs>
    <linearGradient id="nr" x1="0%" y1="0%" x2="100%" y2="100%">
      <stop offset="0%" stop-color="#ff3333" />
      <stop offset="50%" stop-color="#d90429" />
      <stop offset="100%" stop-color="#800000" />
    </linearGradient>
    <linearGradient id="cg" x1="0%" y1="100%" x2="100%" y2="0%">
      <stop offset="0%" stop-color="#800000" />
      <stop offset="100%" stop-color="#ff4d4d" />
    </linearGradient>
    <filter id="g" x="-50%" y="-50%" width="200%" height="200%">
      <feGaussianBlur in="SourceGraphic" stdDeviation="5" result="b1" />
      <feGaussianBlur in="SourceGraphic" stdDeviation="12" result="b2" />
      <feMerge><feMergeNode in="b2" /><feMergeNode in="b1" /><feMergeNode in="SourceGraphic" /></feMerge>
    </filter>
  </defs>
  <g transform="translate(250, 250)">
    <g stroke="url(#nr)" fill="none" stroke-width="2.5" opacity="0.35">
      <ellipse rx="120" ry="34" transform="rotate(30)" />
      <ellipse rx="120" ry="34" transform="rotate(90)" />
      <ellipse rx="120" ry="34" transform="rotate(150)" />
    </g>
    <circle r="55" fill="#d90429" opacity="0.12" filter="url(#g)"/>
    <g stroke="url(#cg)" stroke-width="10" fill="none" stroke-linejoin="round" filter="url(#g)">
      <polygon points="0,-80 69,-40 69,40 0,80 -69,40 -69,-40" stroke-dasharray="320"/>
      <path d="M -30,-18 L 30,-18 A 18,18 0 0,1 30,18 L -30,18 A 18,18 0 0,1 -30,-18" stroke-width="8"/>
      <path d="M 0,0 L 45,45 A 18,18 0 0,1 20,70 L -25,25 A 18,18 0 0,1 0,0" stroke-width="7" opacity="0.85"/>
      <path d="M 0,0 L -45,-45 A 18,18 0 0,1 -20,-70 L 25,-25 A 18,18 0 0,1 0,0" stroke-width="7" opacity="0.85"/>
    </g>
    <circle r="8" fill="#fff" filter="url(#g)"/>
    <g fill="#fff" filter="url(#g)">
      <circle cy="-80" r="5.5"/><circle cx="69" cy="-40" r="5.5"/><circle cx="69" cy="40" r="5.5"/>
      <circle cy="80" r="5.5"/><circle cx="-69" cy="40" r="5.5"/><circle cx="-69" cy="-40" r="5.5"/>
    </g>
  </g>
</svg>
